<svg height="1902" width="720" xmlns="http://www.w3.org/2000/svg">
<rect height="1902" fill="#555" width="720"></rect>
<text fill="#7f7" font-family="Courier New" font-size="12" xml:space="preserve">
<tspan x="10" y="26">18 megabytes installed</tspan>
<tspan x="10" y="42"></tspan>
<tspan x="10" y="58">node_modules</tspan>
<tspan x="10" y="74">└─┬ nw-gyp@3.4.0 </tspan>
<tspan x="10" y="90">  ├─┬ fstream@1.0.11 </tspan>
<tspan x="10" y="106">  │ └── inherits@2.0.3 </tspan>
<tspan x="10" y="122">  ├─┬ glob@7.1.1 </tspan>
<tspan x="10" y="138">  │ ├── fs.realpath@1.0.0 </tspan>
<tspan x="10" y="154">  │ ├─┬ inflight@1.0.6 </tspan>
<tspan x="10" y="170">  │ │ └── wrappy@1.0.2 </tspan>
<tspan x="10" y="186">  │ ├── once@1.4.0 </tspan>
<tspan x="10" y="202">  │ └── path-is-absolute@1.0.1 </tspan>
<tspan x="10" y="218">  ├── graceful-fs@4.1.11 </tspan>
<tspan x="10" y="234">  ├─┬ minimatch@3.0.3 </tspan>
<tspan x="10" y="250">  │ └─┬ brace-expansion@1.1.7 </tspan>
<tspan x="10" y="266">  │   ├── balanced-match@0.4.2 </tspan>
<tspan x="10" y="282">  │   └── concat-map@0.0.1 </tspan>
<tspan x="10" y="298">  ├─┬ mkdirp@0.5.1 </tspan>
<tspan x="10" y="314">  │ └── minimist@0.0.8 </tspan>
<tspan x="10" y="330">  ├─┬ nopt@3.0.6 </tspan>
<tspan x="10" y="346">  │ └── abbrev@1.1.0 </tspan>
<tspan x="10" y="362">  ├─┬ npmlog@3.1.2 </tspan>
<tspan x="10" y="378">  │ ├─┬ are-we-there-yet@1.1.2 </tspan>
<tspan x="10" y="394">  │ │ ├── delegates@1.0.0 </tspan>
<tspan x="10" y="410">  │ │ └─┬ readable-stream@2.2.9 </tspan>
<tspan x="10" y="426">  │ │   ├── buffer-shims@1.0.0 </tspan>
<tspan x="10" y="442">  │ │   ├── core-util-is@1.0.2 </tspan>
<tspan x="10" y="458">  │ │   ├── isarray@1.0.0 </tspan>
<tspan x="10" y="474">  │ │   ├── process-nextick-args@1.0.7 </tspan>
<tspan x="10" y="490">  │ │   ├── string_decoder@1.0.0 </tspan>
<tspan x="10" y="506">  │ │   └── util-deprecate@1.0.2 </tspan>
<tspan x="10" y="522">  │ ├── console-control-strings@1.1.0 </tspan>
<tspan x="10" y="538">  │ ├─┬ gauge@2.6.0 </tspan>
<tspan x="10" y="554">  │ │ ├── aproba@1.1.1 </tspan>
<tspan x="10" y="570">  │ │ ├── has-color@0.1.7 </tspan>
<tspan x="10" y="586">  │ │ ├── has-unicode@2.0.1 </tspan>
<tspan x="10" y="602">  │ │ ├── object-assign@4.1.1 </tspan>
<tspan x="10" y="618">  │ │ ├── signal-exit@3.0.2 </tspan>
<tspan x="10" y="634">  │ │ ├─┬ string-width@1.0.2 </tspan>
<tspan x="10" y="650">  │ │ │ ├── code-point-at@1.1.0 </tspan>
<tspan x="10" y="666">  │ │ │ └─┬ is-fullwidth-code-point@1.0.0 </tspan>
<tspan x="10" y="682">  │ │ │   └── number-is-nan@1.0.1 </tspan>
<tspan x="10" y="698">  │ │ ├─┬ strip-ansi@3.0.1 </tspan>
<tspan x="10" y="714">  │ │ │ └── ansi-regex@2.1.1 </tspan>
<tspan x="10" y="730">  │ │ └── wide-align@1.1.0 </tspan>
<tspan x="10" y="746">  │ └── set-blocking@2.0.0 </tspan>
<tspan x="10" y="762">  ├─┬ osenv@0.1.4 </tspan>
<tspan x="10" y="778">  │ ├── os-homedir@1.0.2 </tspan>
<tspan x="10" y="794">  │ └── os-tmpdir@1.0.2 </tspan>
<tspan x="10" y="810">  ├─┬ path-array@1.0.1 </tspan>
<tspan x="10" y="826">  │ └─┬ array-index@1.0.0 </tspan>
<tspan x="10" y="842">  │   ├─┬ debug@2.6.3 </tspan>
<tspan x="10" y="858">  │   │ └── ms@0.7.2 </tspan>
<tspan x="10" y="874">  │   └─┬ es6-symbol@3.1.1 </tspan>
<tspan x="10" y="890">  │     ├── d@1.0.0 </tspan>
<tspan x="10" y="906">  │     └─┬ es5-ext@0.10.15 </tspan>
<tspan x="10" y="922">  │       └── es6-iterator@2.0.1 </tspan>
<tspan x="10" y="938">  ├─┬ request@2.81.0 </tspan>
<tspan x="10" y="954">  │ ├── aws-sign2@0.6.0 </tspan>
<tspan x="10" y="970">  │ ├── aws4@1.6.0 </tspan>
<tspan x="10" y="986">  │ ├── caseless@0.12.0 </tspan>
<tspan x="10" y="1002">  │ ├─┬ combined-stream@1.0.5 </tspan>
<tspan x="10" y="1018">  │ │ └── delayed-stream@1.0.0 </tspan>
<tspan x="10" y="1034">  │ ├── extend@3.0.0 </tspan>
<tspan x="10" y="1050">  │ ├── forever-agent@0.6.1 </tspan>
<tspan x="10" y="1066">  │ ├─┬ form-data@2.1.4 </tspan>
<tspan x="10" y="1082">  │ │ └── asynckit@0.4.0 </tspan>
<tspan x="10" y="1098">  │ ├─┬ har-validator@4.2.1 </tspan>
<tspan x="10" y="1114">  │ │ ├─┬ ajv@4.11.7 </tspan>
<tspan x="10" y="1130">  │ │ │ ├── co@4.6.0 </tspan>
<tspan x="10" y="1146">  │ │ │ └─┬ json-stable-stringify@1.0.1 </tspan>
<tspan x="10" y="1162">  │ │ │   └── jsonify@0.0.0 </tspan>
<tspan x="10" y="1178">  │ │ └── har-schema@1.0.5 </tspan>
<tspan x="10" y="1194">  │ ├─┬ hawk@3.1.3 </tspan>
<tspan x="10" y="1210">  │ │ ├── boom@2.10.1 </tspan>
<tspan x="10" y="1226">  │ │ ├── cryptiles@2.0.5 </tspan>
<tspan x="10" y="1242">  │ │ ├── hoek@2.16.3 </tspan>
<tspan x="10" y="1258">  │ │ └── sntp@1.0.9 </tspan>
<tspan x="10" y="1274">  │ ├─┬ http-signature@1.1.1 </tspan>
<tspan x="10" y="1290">  │ │ ├── assert-plus@0.2.0 </tspan>
<tspan x="10" y="1306">  │ │ ├─┬ jsprim@1.4.0 </tspan>
<tspan x="10" y="1322">  │ │ │ ├── assert-plus@1.0.0 </tspan>
<tspan x="10" y="1338">  │ │ │ ├── extsprintf@1.0.2 </tspan>
<tspan x="10" y="1354">  │ │ │ ├── json-schema@0.2.3 </tspan>
<tspan x="10" y="1370">  │ │ │ └── verror@1.3.6 </tspan>
<tspan x="10" y="1386">  │ │ └─┬ sshpk@1.13.0 </tspan>
<tspan x="10" y="1402">  │ │   ├── asn1@0.2.3 </tspan>
<tspan x="10" y="1418">  │ │   ├── assert-plus@1.0.0 </tspan>
<tspan x="10" y="1434">  │ │   ├── bcrypt-pbkdf@1.0.1 </tspan>
<tspan x="10" y="1450">  │ │   ├─┬ dashdash@1.14.1 </tspan>
<tspan x="10" y="1466">  │ │   │ └── assert-plus@1.0.0 </tspan>
<tspan x="10" y="1482">  │ │   ├── ecc-jsbn@0.1.1 </tspan>
<tspan x="10" y="1498">  │ │   ├─┬ getpass@0.1.6 </tspan>
<tspan x="10" y="1514">  │ │   │ └── assert-plus@1.0.0 </tspan>
<tspan x="10" y="1530">  │ │   ├── jodid25519@1.0.2 </tspan>
<tspan x="10" y="1546">  │ │   ├── jsbn@0.1.1 </tspan>
<tspan x="10" y="1562">  │ │   └── tweetnacl@0.14.5 </tspan>
<tspan x="10" y="1578">  │ ├── is-typedarray@1.0.0 </tspan>
<tspan x="10" y="1594">  │ ├── isstream@0.1.2 </tspan>
<tspan x="10" y="1610">  │ ├── json-stringify-safe@5.0.1 </tspan>
<tspan x="10" y="1626">  │ ├─┬ mime-types@2.1.15 </tspan>
<tspan x="10" y="1642">  │ │ └── mime-db@1.27.0 </tspan>
<tspan x="10" y="1658">  │ ├── oauth-sign@0.8.2 </tspan>
<tspan x="10" y="1674">  │ ├── performance-now@0.2.0 </tspan>
<tspan x="10" y="1690">  │ ├── qs@6.4.0 </tspan>
<tspan x="10" y="1706">  │ ├── safe-buffer@5.0.1 </tspan>
<tspan x="10" y="1722">  │ ├── stringstream@0.0.5 </tspan>
<tspan x="10" y="1738">  │ ├─┬ tough-cookie@2.3.2 </tspan>
<tspan x="10" y="1754">  │ │ └── punycode@1.4.1 </tspan>
<tspan x="10" y="1770">  │ ├── tunnel-agent@0.6.0 </tspan>
<tspan x="10" y="1786">  │ └── uuid@3.0.1 </tspan>
<tspan x="10" y="1802">  ├── rimraf@2.6.1 </tspan>
<tspan x="10" y="1818">  ├── semver@5.3.0 </tspan>
<tspan x="10" y="1834">  ├─┬ tar@2.2.1 </tspan>
<tspan x="10" y="1850">  │ └── block-stream@0.0.9 </tspan>
<tspan x="10" y="1866">  └─┬ which@1.2.14 </tspan>
<tspan x="10" y="1882">    └── isexe@2.0.0</tspan>
</text>
</svg>
